<svg xmlns="http://www.w3.org/2000/svg" width="600" height="400" viewBox="0 0 600 400">
  <rect width="600" height="400" fill="#0c1220"/>
  <rect x="40" y="40" width="520" height="320" rx="16" fill="#132035"/>
  <rect x="100" y="100" width="60" height="120" rx="4" fill="#1e3a5f" stroke="#38bdf8" stroke-width="2"/>
  <rect x="100" y="160" width="60" height="60" fill="#38bdf8" opacity="0.4"/>
  <rect x="220" y="100" width="60" height="120" rx="4" fill="#1e3a5f" stroke="#38bdf8" stroke-width="2"/>
  <rect x="220" y="130" width="60" height="90" fill="#38bdf8" opacity="0.6"/>
  <rect x="340" y="100" width="60" height="120" rx="4" fill="#1e3a5f" stroke="#38bdf8" stroke-width="2"/>
  <rect x="340" y="110" width="60" height="110" fill="#38bdf8" opacity="0.8"/>
  <rect x="460" y="100" width="60" height="120" rx="4" fill="#1e3a5f" stroke="#38bdf8" stroke-width="2"/>
  <rect x="460" y="180" width="60" height="40" fill="#38bdf8" opacity="0.3"/>
  <text x="130" y="250" font-family="system-ui" font-size="11" fill="#94a3b8" text-anchor="middle">T1</text>
  <text x="250" y="250" font-family="system-ui" font-size="11" fill="#94a3b8" text-anchor="middle">T2</text>
  <text x="370" y="250" font-family="system-ui" font-size="11" fill="#94a3b8" text-anchor="middle">T3</text>
  <text x="490" y="250" font-family="system-ui" font-size="11" fill="#94a3b8" text-anchor="middle">T4</text>
  <line x1="160" y1="160" x2="220" y2="160" stroke="#38bdf8" stroke-width="2" stroke-dasharray="4,3"/>
  <line x1="280" y1="160" x2="340" y2="160" stroke="#38bdf8" stroke-width="2" stroke-dasharray="4,3"/>
  <line x1="400" y1="160" x2="460" y2="160" stroke="#38bdf8" stroke-width="2" stroke-dasharray="4,3"/>
  <text x="300" y="310" font-family="system-ui" font-size="24" fill="#e2e8f0" text-anchor="middle" font-weight="bold">AquaFlow HMI</text>
  <text x="300" y="340" font-family="system-ui" font-size="14" fill="#94a3b8" text-anchor="middle">Industrial Water Management</text>
</svg>
